<?xml version="1.0" encoding="utf-8"?>

<!-- License Agreement at http://iconmonstr.com/license/ -->

<!DOCTYPE svg PUBLIC "-//W3C//DTD SVG 1.1//EN" "http://www.w3.org/Graphics/SVG/1.1/DTD/svg11.dtd">
<svg version="1.1" xmlns="http://www.w3.org/2000/svg" xmlns:xlink="http://www.w3.org/1999/xlink" x="0px" y="0px"
	 width="512px" height="512px" viewBox="0 0 512 512" style="enable-background:new 0 0 512 512;" xml:space="preserve">
<path id="currency-indian-rupee-2-icon" d="M372.364,462H251.122l-82.348-113.129c-6.672-11.061-15.807-17.896-36.447-17.896
	c-1.686,0-23.361,0-23.361,0V50h294.068v187.572h-67.586c-11.783,34.462-34.434,61.594-65.287,78.371L372.364,462z M266.349,432.084
	h48.57L224.474,302.83c24.617-6.053,72.867-27.803,88.34-95.174h60.305v-35.002h-61.152c-3.375-20.377-10.875-36.877-27.797-57.736
	h88.949V79.916H138.882v35.002h35.062c62.83,0,85.646,37.859,92.811,57.736H138.882v35.002h126.619
	c-5.91,22.121-27.619,57.669-86.619,57.669h-40v35.744c13.766,0.682,38.654,4.915,54.826,31.222L266.349,432.084z"/>
</svg>
