<?xml version="1.0" encoding="utf-8"?>

<!-- The icon can be used freely in both personal and commercial projects with no attribution required, but always appreciated. 
You may NOT sub-license, resell, rent, redistribute or otherwise transfer the icon without express written permission from iconmonstr.com -->

<!DOCTYPE svg PUBLIC "-//W3C//DTD SVG 1.1//EN" "http://www.w3.org/Graphics/SVG/1.1/DTD/svg11.dtd">
<svg version="1.1" xmlns="http://www.w3.org/2000/svg" xmlns:xlink="http://www.w3.org/1999/xlink" x="0px" y="0px"
	 width="512px" height="512px" viewBox="0 0 512 512" enable-background="new 0 0 512 512" xml:space="preserve">
<path id="stream-5-icon" d="M309.543,284.655c9.46-32.298,39.304-55.889,74.659-55.889c47.415,0,83.913,42.096,76.95,89.245h-6.332
	c-8.043,0-9.064-0.943-13.378-12.91c-3.426-9.499-8.015-21.201-18.613-21.201s-14.95,11.798-18.612,21.201
	c-3.038,7.8-4.441,12.445-7.08,12.445c-2.56,0-3.961-4.532-7.081-12.445c-3.699-9.386-8.014-21.201-18.613-21.201
	s-15.093,11.733-18.613,21.201c-3.153,8.481-4.349,12.445-7.082,12.445c-2.619,0-3.658-4.077-7.081-12.445
	c-3.815-9.332-8.149-20.446-19.746-20.446H309.543z M448.522,330.727c-10.6,0-14.873-11.078-18.612-20.448
	c-3.839-9.611-4.618-12.784-7.081-12.784c-2.475,0-3.479,3.928-7.081,12.784c-3.796,9.341-8.013,21.203-18.611,21.203
	s-14.979-11.785-18.613-21.201c-3.382-8.764-4.37-12.446-7.081-12.446c-2.59,0-3.525,3.513-7.081,12.446
	c-3.73,9.371-8.015,21.201-18.614,21.201c-10.599,0-15.245-11.681-18.613-21.201c-4.232-11.969-5.508-12.976-13.421-12.976h-6.751
	c-5.526,46.613,30.88,87.044,77.24,87.044c34.525,0,63.792-22.492,73.959-53.622H448.522z M309.591,384.35H130.239
	c-44.318,0-80.246-35.928-80.246-80.246c0-40.982,30.729-74.766,70.396-79.623c2.891-42.287,49.035-66.355,85.217-45.898
	c50.475-80.305,167.008-59.982,194.83,21.395c-33.537-5.036-67.676,5.582-92.455,30.361c-20.359,20.358-31.572,47.428-31.572,76.22
	C276.409,336.191,288.3,363.941,309.591,384.35z"/>
</svg>
